<svg xmlns="http://www.w3.org/2000/svg" viewBox="0 0 140 48" role="img" aria-labelledby="title desc">
  <title id="title">Renov Habitat 83</title>
  <desc id="desc">Logo stylisé de Renov Habitat 83 représentant une maison et une feuille</desc>
  <defs>
    <linearGradient id="roof" x1="0%" y1="0%" x2="100%" y2="100%">
      <stop offset="0%" stop-color="#2b7a3d" />
      <stop offset="100%" stop-color="#1f5c2c" />
    </linearGradient>
    <linearGradient id="leaf" x1="0%" y1="0%" x2="0%" y2="100%">
      <stop offset="0%" stop-color="#7fd183" />
      <stop offset="100%" stop-color="#2b7a3d" />
    </linearGradient>
  </defs>
  <g fill="none" fill-rule="evenodd">
    <path d="M16 6.5 4 17.5c-.6.53-.6 1.47 0 2l1.2 1.07c.48.43 1.2.43 1.68 0l1.12-.99v16.42c0 .82.67 1.49 1.5 1.49H26.5c.83 0 1.5-.67 1.5-1.5V19.58l1.12.99c.48.43 1.2.43 1.68 0L31 19.5c.6-.53.6-1.47 0-2L19 6.5a1.2 1.2 0 0 0-1.6 0Z" fill="url(#roof)"/>
    <path d="M21.5 26c5.5-1.6 9-4.8 10.4-9.6 1.6 6.8-1.4 12.2-9 16.2-7.6 4-12.4 2-13.4-3.6 3.5.6 7-.3 10.5-2Z" fill="url(#leaf)"/>
    <text x="46" y="20" font-family="'Poppins', 'Segoe UI', sans-serif" font-weight="700" font-size="16" fill="#1c1f24">Renov</text>
    <text x="46" y="36" font-family="'Poppins', 'Segoe UI', sans-serif" font-weight="500" font-size="14" fill="#2b7a3d">Habitat 83</text>
  </g>
</svg>
