<svg xmlns="http://www.w3.org/2000/svg" viewBox="0 0 420 120" role="img" aria-labelledby="title desc">
  <title id="title">Vision mot-symbole blanc</title>
  <desc id="desc">Logo Vision blanc minimaliste avec monogramme en V et lettrage contemporain</desc>
  <g fill="none" fill-rule="evenodd">
    <path fill="#F8F9FB" d="M36 16l30 88h-18L25 48 2 104h-18L16 16h20z" transform="translate(48 8)"/>
    <rect width="54" height="6" x="50" y="86" fill="#F8F9FB" rx="3"/>
    <path fill="#F8F9FB" d="M138 28h18v68h-18zm44.2 34.4c0-22.6 17-37.2 39.8-37.2 23.4 0 40.2 14.6 40.2 37.2 0 22.6-16.8 37.2-40.2 37.2-22.8 0-39.8-14.6-39.8-37.2zm62 0c0-13-8.8-21.6-22.2-21.6-12.8 0-21.6 8.6-21.6 21.6 0 13.2 8.8 21.6 21.6 21.6 13.4 0 22.2-8.4 22.2-21.6zm50.8-34.4h18v37.6L352 28h19.6v68H354V57.6l-28.4 38.4H308zm105.6 0l25.2 39.4 25.2-39.4H414l-34.4 53.4V96h18V28h-18z"/>
  </g>
</svg>
